<svg xmlns="http://www.w3.org/2000/svg" width="96" height="96" fill="none" viewBox="0 0 96 96"><path fill="#F9FAFB" d="M48 95C73.9574 95 95 73.9574 95 48C95 22.0426 73.9574 1 48 1C22.0426 1 1 22.0426 1 48C1 73.9574 22.0426 95 48 95Z"/><path fill="#393939" d="M27.4748 48.6089L48.2319 60.6596L51.6942 35.0804L27.4748 48.6089Z"/><path fill="#343434" d="M48.2317 14.7798L38.397 49.4495L68.9861 48.6091L48.2317 14.7798Z"/><path fill="#8C8C8C" d="M48.2319 14.7798L27.4748 48.6091L48.2319 39.3351V14.7798Z"/><path fill="#8C8C8C" d="M48.2319 81.2075L48.7423 64.8017L27.4748 52.4747L48.2319 81.2075Z"/><path fill="#3C3C3B" d="M48.2317 64.5226V81.2075L69 52.4747L48.2317 64.5226Z"/><path fill="#141414" d="M48.2317 60.6596L68.9861 48.6089L48.2317 39.3405V60.6596Z"/></svg>