<svg xmlns="http://www.w3.org/2000/svg" xmlns:xlink="http://www.w3.org/1999/xlink" id="Layer_1" x="0" y="0" version="1.1" viewBox="0 0 18 18" style="enable-background:new 0 0 18 18" xml:space="preserve"><style type="text/css">.st0{fill:#22996e}.st1{fill:#fff}</style><circle cx="9" cy="9" r="9" class="st0"/><path d="M9,13H4.1c-0.7,0-1.1-0.7-0.7-1.3l2.8-4.4C6.4,7,6.7,6.8,7.1,6.8h3.8c0.4,0,0.7,0.2,0.9,0.5l2.8,4.4	c0.4,0.6,0,1.3-0.7,1.3H9z" class="st1"/><path d="M9.5,3l1.2,1.8c0.2,0.4,0,0.9-0.5,0.9H7.8c-0.5,0-0.7-0.5-0.5-0.9l1.2-1.8C8.8,2.6,9.3,2.6,9.5,3z" class="st1"/></svg>